<svg width="64" height="64" viewBox="0 0 64 64" fill="none" xmlns="http://www.w3.org/2000/svg">
<g clip-path="url(#clip0_173_557)">
<rect width="64" height="64" rx="32" fill="#ADC178"/>
<path d="M51.6349 66.069C51.6349 77.7845 42.91 87.1379 32.3175 87.1379C21.725 87.1379 13 77.7845 13 66.069C13 54.3534 21.725 45 32.3175 45C42.91 45 51.6349 54.3534 51.6349 66.069Z" stroke="white" stroke-width="2"/>
<g clip-path="url(#clip1_173_557)">
<path d="M47.8499 36.3567L45.2738 33.7806L50.2088 33.5776C50.348 33.5719 50.487 33.5388 50.6178 33.4802C50.7487 33.4216 50.8688 33.3386 50.9713 33.2361C51.0738 33.1336 51.1567 33.0135 51.2153 32.8827C51.2739 32.7518 51.3071 32.6128 51.3128 32.4736C51.3186 32.3343 51.2968 32.1976 51.2489 32.0712C51.2009 31.9447 51.1276 31.8311 51.0333 31.7367C50.9389 31.6423 50.8252 31.569 50.6988 31.5211C50.5724 31.4731 50.4356 31.4514 50.2964 31.4571L45.3613 31.662L48.1595 28.8638C48.3664 28.6569 48.4892 28.3827 48.5008 28.1017C48.5124 27.8207 48.4119 27.5557 48.2214 27.3652C48.0309 27.1747 47.766 27.0742 47.485 27.0858C47.2039 27.0974 46.9298 27.2202 46.7228 27.4271L43.5462 30.6038C43.138 28.8229 42.1409 27.2753 40.7094 26.2006C39.2778 25.1259 37.4916 24.584 35.6273 24.6589C28.1849 24.9 16.3399 31.3306 15.1621 31.9805C14.7474 32.1462 14.3833 32.4317 14.1193 32.7982C13.8552 33.1647 13.704 33.5945 13.686 34.0293C13.6681 34.4641 13.7843 34.8829 14.0189 35.2288C14.2535 35.5747 14.5951 35.831 14.9975 35.963C16.1256 36.5176 27.4934 41.9964 34.9304 41.6152C36.7945 41.5351 38.631 40.8429 40.1557 39.6458C41.6805 38.4486 42.8083 36.8132 43.3649 34.9927L46.2894 37.9173C46.4799 38.1078 46.7448 38.2083 47.0258 38.1967C47.3069 38.185 47.581 38.0623 47.788 37.8553C47.9949 37.6484 48.1177 37.3743 48.1293 37.0932C48.1409 36.8122 48.0404 36.5473 47.8499 36.3567ZM34.9927 39.4949C33.3005 39.5816 31.3486 39.3229 29.354 38.8751L29.5515 34.1199C29.5572 33.9806 29.5355 33.8439 29.4875 33.7175C29.4395 33.591 29.3663 33.4774 29.2719 33.383C29.1775 33.2886 29.0639 33.2154 28.9374 33.1674C28.811 33.1194 28.6742 33.0977 28.535 33.1034C28.3958 33.1092 28.2568 33.1423 28.1259 33.2009C27.9951 33.2595 27.875 33.3424 27.7725 33.445C27.67 33.5475 27.587 33.6676 27.5284 33.7984C27.4698 33.9293 27.4367 34.0683 27.431 34.2075L27.26 38.3455C21.5235 36.7424 16.0546 34.0493 15.9731 34.0087C15.9132 33.9801 15.8503 33.9576 15.7851 33.9417C15.8507 33.9195 15.9144 33.8912 15.9756 33.8571C16.0923 33.7925 27.2266 27.6344 34.4667 26.8593L34.2053 33.1852C34.1937 33.4664 34.2943 33.7314 34.4849 33.9221C34.6755 34.1127 34.9406 34.2132 35.2218 34.2016C35.503 34.19 35.7773 34.0671 35.9843 33.8601C36.1914 33.653 36.3142 33.3787 36.3258 33.0975L36.5842 26.8232C38.1465 27.0234 39.5277 27.812 40.4534 29.0324C41.3791 30.2528 41.7817 31.8158 41.5813 33.4112C41.381 35.0066 40.5923 36.5178 39.3718 37.6448C38.1512 38.7717 36.5882 39.4321 34.9927 39.4949Z" fill="white"/>
</g>
</g>
<rect x="1.5" y="1.5" width="61" height="61" rx="30.5" stroke="#9DAF6B" stroke-width="3"/>
<defs>
<clipPath id="clip0_173_557">
<rect width="64" height="64" rx="32" fill="white"/>
</clipPath>
<clipPath id="clip1_173_557">
<rect width="32.5079" height="35.3103" fill="white" transform="translate(33.2604 9.28308) rotate(45)"/>
</clipPath>
</defs>
</svg>
